Coordinates
version=1
nRows=29
nColumns=24
inDegrees=yes

Units are S.I. units (second, meters, Newtons, ...)
Angles are in degrees.

endheader
time	pelvis_tilt	pelvis_list	pelvis_rotation	pelvis_tx	pelvis_ty	pelvis_tz	hip_flexion_r	hip_adduction_r	hip_rotation_r	knee_angle_r	ankle_angle_r	subtalar_angle_r	mtp_angle_r	hip_flexion_l	hip_adduction_l	hip_rotation_l	knee_angle_l	ankle_angle_l	subtalar_angle_l	mtp_angle_l	lumbar_extension	lumbar_bending	lumbar_rotation
      0.50800000	     -3.56958446	      2.21466526	      4.63220630	     -0.75316211	      1.01434627	      0.29343623	     25.97516908	     -1.49335091	     -7.93710333	      0.89396524	      3.19119120	     -0.04600920	      6.15922089	     -8.86116134	      6.35611569	      6.82234186	     -5.93053811	     13.32327935	     -6.76200196	     -5.45125695	     -5.01610032	     -4.80226229	     -4.82662579
      0.51216667	     -3.59355147	      2.11959847	      4.71167341	     -0.74752888	      1.01364556	      0.29352246	     25.96962508	     -1.32724438	     -7.73013275	      0.66880650	      3.16713713	     -0.29532239	      6.20412999	     -8.91111821	      6.23367828	      6.73396130	     -6.47019869	     13.64496923	     -6.53223242	     -5.45793753	     -4.95832509	     -4.70667624	     -4.90292861
      0.51633333	     -3.59725687	      2.00129815	      4.77467094	     -0.74185038	      1.01299333	      0.29359816	     25.96852173	     -1.13894038	     -7.59230198	      0.32661831	      3.20612502	     -0.40385455	      6.22186080	     -8.99922218	      6.09816986	      6.76742583	     -6.97192780	     13.83585713	     -6.59427368	     -5.45494690	     -4.92964275	     -4.58471864	     -4.89339088
      0.52050000	     -3.62284109	      1.89501635	      4.85398367	     -0.73617447	      1.01234167	      0.29367900	     25.96812812	     -0.96457982	     -7.32030960	     -0.01582956	      3.05044714	     -0.84892875	      6.32857371	     -8.98690170	      5.96519765	      6.60065457	     -7.63277234	     14.17973305	     -6.23443482	     -5.44963376	     -4.83957345	     -4.46803214	     -4.86679726
      0.52466667	     -3.61584221	      1.76349602	      4.92811782	     -0.73045839	      1.01177776	      0.29374552	     25.94438734	     -0.76645038	     -7.10555764	     -0.42990163	      2.91121934	     -1.20839677	      6.47450041	     -9.00825616	      5.81128777	      6.51572410	     -8.29472334	     14.44320224	     -6.05940981	     -5.44019696	     -4.80563319	     -4.31753118	     -4.84606716
      0.52883333	     -3.59350416	      1.63465029	      5.00114855	     -0.72471793	      1.01126314	      0.29381245	     25.90469889	     -0.57069389	     -6.87348921	     -0.88128913	      2.71870833	     -1.63435340	      6.63512351	     -9.03453516	      5.66131062	      6.44923016	     -8.97979202	     14.65686707	     -5.94723611	     -5.42080282	     -4.78175166	     -4.16965317	     -4.82580093
      0.53300000	     -3.56779451	      1.49861458	      5.07511818	     -0.71895612	      1.01078681	      0.29388010	     25.85787505	     -0.36844803	     -6.62135499	     -1.35493200	      2.45684930	     -2.12873047	      6.83196827	     -9.03477890	      5.50555418	      6.37827640	     -9.72497190	     14.85453151	     -5.82834090	     -5.38739677	     -4.76095508	     -4.01107784	     -4.80814245
      0.53716667	     -3.54684443	      1.36624606	      5.15854785	     -0.71317159	      1.01033811	      0.29394086	     25.81708160	     -0.17560481	     -6.37964826	     -1.85336365	      2.14199662	     -2.65944225	      7.02318703	     -9.00991445	      5.35490033	      6.33310329	    -10.51455272	     15.01785022	     -5.73994939	     -5.34434687	     -4.72587832	     -3.85646258	     -4.79041556
      0.54133333	     -3.48851762	      1.22067436	      5.23522842	     -0.70736120	      1.00998587	      0.29401019	     25.72491671	      0.03682602	     -6.10819302	     -2.34416845	      1.75289878	     -3.26444930	      7.25401739	     -8.99876747	      5.18722972	      6.25497274	    -11.35027004	     15.15709435	     -5.63351478	     -5.27802507	     -4.73552325	     -3.68179180	     -4.77156831
      0.54550000	     -3.48109856	      1.08802098	      5.31877938	     -0.70154343	      1.00957952	      0.29408189	     25.69521007	      0.22744232	     -5.84121345	     -2.86435422	      1.32697341	     -3.87834223	      7.48702674	     -8.90173745	      5.04011429	      6.19578432	    -12.25041244	     15.25138855	     -5.55956753	     -5.19348141	     -4.67760475	     -3.52668105	     -4.75264851
      0.54966667	     -3.41001735	      0.93776538	      5.40304210	     -0.69569558	      1.00931830	      0.29415827	     25.58123531	      0.44159304	     -5.56950888	     -3.35787804	      0.82720783	     -4.55143378	      7.74040394	     -8.84916954	      4.86622621	      6.12181711	    -13.19254303	     15.31985334	     -5.47060792	     -5.07836075	     -4.69977947	     -3.34665969	     -4.73269867
      0.55383333	     -3.35525343	      0.80104158	      5.48549588	     -0.68984883	      1.00906532	      0.29425205	     25.48811769	      0.64020323	     -5.28919096	     -3.86403191	      0.29855265	     -5.23014913	      8.01852362	     -8.74851169	      4.70863631	      6.04809711	    -14.19603824	     15.34596056	     -5.38797298	     -4.92650716	     -4.69626262	     -3.18186782	     -4.71230496
      0.55800000	     -3.31784000	      0.63554054	      5.59950035	     -0.68395599	      1.00885004	      0.29427410	     25.40721903	      0.84334423	     -5.12459672	     -4.36346082	     -0.25058266	     -5.75490435	      8.18258679	     -8.60174640	      4.52410279	      6.04248061	    -15.25008879	     15.32333152	     -5.37238059	     -4.81359436	     -4.65828706	     -2.96599973	     -4.68676584
      0.56216667	     -3.26335933	      0.51544026	      5.66238364	     -0.67810947	      1.00865573	      0.29444291	     25.31446470	      1.03676907	     -4.77318854	     -4.87302012	     -0.84449429	     -6.58472441	      8.46920554	     -8.43209890	      4.37785321	      5.88297935	    -16.37845171	     15.26765301	     -5.21837018	     -4.58473551	     -4.66562887	     -2.84504031	     -4.66396086
      0.56633333	     -3.20555520	      0.36448547	      5.75553314	     -0.67222586	      1.00852847	      0.29455278	     25.21010385	      1.23958974	     -4.54175813	     -5.36798101	     -1.45673211	     -7.24819486	      8.74599300	     -8.23459059	      4.19588644	      5.77548562	    -17.56335490	     15.16498630	     -5.10653697	     -4.31857221	     -4.64904237	     -2.66131887	     -4.63717603
      0.57050000	     -3.13982861	      0.21252441	      5.84733029	     -0.66633519	      1.00845620	      0.29467086	     25.10523892	      1.43618026	     -4.38388860	     -5.87699812	     -2.06628867	     -7.77747359	     11.26135152	     -8.00679783	      4.00274463	      5.61334777	    -18.80206245	     14.92369620	     -4.97377655	     -1.48687685	     -4.65200935	     -2.47502818	     -4.58215490
      0.57466667	     -3.07913777	      0.07178893	      5.94511950	     -0.66046997	      1.00843190	      0.29480046	     25.00130752	      1.62165958	     -4.18000041	     -6.38641419	     -2.62456167	     -8.38173222	     11.25362031	     -7.74564305	      3.82807669	      5.52333691	    -20.09300771	     14.67153540	     -4.91663715	     -1.41405561	     -4.64906512	     -2.30966284	     -4.57201205
      0.57883333	     -3.04110487	     -0.08295503	      6.03851163	     -0.65459965	      1.00839443	      0.29496145	     24.92657825	      1.81794020	     -4.00247668	     -6.90578108	     -3.13675540	     -8.91686748	     11.25661521	     -7.40950942	      3.62641222	      5.35548639	    -21.46961094	     14.38644367	     -4.74726006	     -1.27372040	     -4.61715615	     -2.13224279	     -4.53654701
      0.58300000	     -2.97555338	     -0.23844278	      6.13202555	     -0.64873883	      1.00845694	      0.29513200	     24.82265362	      2.01393993	     -3.85238468	     -7.43004210	     -3.61534769	     -9.40828340	     11.26494281	     -7.06709241	      3.41313861	      5.16377473	    -22.89417612	     14.02602964	     -4.56548061	     -1.07312866	     -4.61765348	     -1.94554126	     -4.49596132
      0.58716667	     -2.87546495	     -0.41119341	      6.22806767	     -0.64286836	      1.00860770	      0.29533184	     24.67144890	      2.23138082	     -3.71618324	     -7.93691058	     -4.01711622	     -9.88705838	     11.28167191	     -6.72066006	      3.15956826	      4.91958334	    -24.37320287	     13.57164678	     -4.31887767	     -0.70911595	     -4.64970779	     -1.76270121	     -4.44314964
      0.59133333	     -2.83159123	     -0.57988901	      6.31682673	     -0.63704631	      1.00869811	      0.29553739	     24.60805765	      2.43088130	     -3.63286501	     -8.49982509	     -4.37683383	    -10.22836246	     11.29119553	     -6.27133515	      2.91684881	      4.69238419	    -25.91850980	     13.07653369	     -4.11062654	     -0.36876781	     -4.63220648	     -1.54815242	     -4.39162818
      0.59550000	     -2.72306116	     -0.75803302	      6.40494747	     -0.63120952	      1.00894510	      0.29577295	     24.45543497	      2.64946442	     -3.55781455	     -9.02803807	     -4.66371369	    -10.56539734	     11.38446934	     -5.86853219	      2.64060809	      4.43930846	    -27.46280898	     12.28967474	     -3.98357760	      4.17025230	     -4.68371127	     -1.34913921	     -4.29824502
      0.59966667	     -2.64216243	     -0.94184664	      6.49173661	     -0.62541182	      1.00916577	      0.29601658	     24.35252966	      2.86269933	     -3.54477837	     -9.60408382	     -4.81417162	    -10.74914123	     11.37677424	     -5.38468717	      2.34960298	      4.15666491	    -29.09848368	     11.63110786	     -3.71892467	      4.23913674	     -4.70692209	     -1.12841467	     -4.26019749
      0.60383333	     -2.53500520	     -1.14754623	      6.57589463	     -0.61959926	      1.00946015	      0.29627321	     24.20245440	      3.10207226	     -3.54020471	    -10.14160372	     -4.91647213	    -10.89616542	     11.36815762	     -4.90077953	      2.02065405	      3.86472212	    -30.75210097	     10.79835662	     -3.50220942	      4.32345258	     -4.75128757	     -0.88865122	     -4.19976141
      0.60800000	     -2.45158322	     -1.35368021	      6.64662085	     -0.61385164	      1.00972782	      0.29658782	     24.09478710	      3.34433522	     -3.54942055	    -10.71070498	     -5.00178213	    -11.08884736	     11.34463765	     -4.34213998	      1.67275907	      3.51746911	    -32.47473640	     10.00365765	     -3.17310973	      4.54275537	     -4.78046552	     -0.65026538	     -4.10109803
      0.61216667	     -2.47716006	     -1.57915367	      6.70402584	     -0.60786570	      1.00983154	      0.29692851	     24.07706544	      3.59714825	     -3.58069803	    -11.25619203	     -4.98195592	    -11.19848204	     11.31104566	     -3.66265408	      1.30495212	      3.16597086	    -34.19618223	      9.06525293	     -2.89447494	      4.86460805	     -4.89461970	     -0.38456383	     -3.72815752
      0.61633333	     -2.34070310	     -1.80381817	      6.76857165	     -0.60214849	      1.01023077	      0.29726307	     23.89153666	      3.86080437	     -3.65529337	    -11.79249065	     -4.83348264	    -11.17627030	     10.74221596	     -3.11363232	      0.90753919	      2.82492866	    -35.92092358	      7.89327504	     -2.70806529	      9.34266624	     -4.99084516	     -0.11069206	     -3.71446497
      0.62050000	     -2.21064595	     -2.01997748	      6.81548541	     -0.59646024	      1.01065669	      0.29764712	     23.69318278	      4.12757003	     -3.69060565	    -12.28350391	     -4.75115567	    -11.24131246	     10.74407555	     -2.53407556	      0.51339520	      2.48304546	    -37.66442369	      6.71821192	     -2.51676818	      9.35210924	     -5.07149613	      0.13160870	     -3.65023170
      0.62466667	     -2.09084061	     -2.25046095	      6.85085444	     -0.59079915	      1.01106318	      0.29806432	     23.50165867	      4.41062832	     -3.75180572	    -12.76518909	     -4.59916143	    -11.25631911	     10.74232008	     -1.91455908	      0.08909089	      2.12391149	    -39.43129160	      5.52386679	     -2.29425226	      9.38287940	     -5.14049306	      0.39605619	     -3.57162576
